<?xml version="1.0" encoding="utf-8"?>
<!-- Generator: Adobe Illustrator 24.2.0, SVG Export Plug-In . SVG Version: 6.00 Build 0)  -->
<svg version="1.1" id="Capa_1" xmlns="http://www.w3.org/2000/svg" xmlns:xlink="http://www.w3.org/1999/xlink" x="0px" y="0px"
	 viewBox="0 0 90 90" style="enable-background:new 0 0 90 90;" xml:space="preserve">
<style type="text/css">
	.st0{fill:#DB0363;}
	.st1{fill:#08083D;}
</style>
<g>
	<g>
		<path class="st0" d="M69.9,6.1H19.2c-4.2,0-7.6,3.2-7.6,7.2v65.8c0,4,3.4,7.2,7.6,7.2h50.6c4.2,0,7.6-3.2,7.6-7.2V13.4
			C77.4,9.4,74,6.1,69.9,6.1z"/>
	</g>
	<path class="st1" d="M61.7,18h-7.4c-1.4,0-2.5,1.1-2.5,2.5c0,1.4,1.1,2.5,2.5,2.5h1.2c0,6.1-5,11.1-11.1,11.1s-11.1-5-11.1-11.1
		h1.2c1.4,0,2.5-1.1,2.5-2.5c0-1.4-1.1-2.5-2.5-2.5h-7.4c-1.4,0-2.5,1.1-2.5,2.5c0,1.4,1.1,2.5,2.5,2.5h1.2c0,8.8,7.2,16,16,16
		s16-7.2,16-16h1.2c1.4,0,2.5-1.1,2.5-2.5C64.2,19.1,63.1,18,61.7,18z"/>
</g>
</svg>
